TITLE ""
FILE "DISC1Track28.mp3" MP3
  TRACK 01 AUDIO
    TITLE "DISC1Track28_01"
    INDEX 01 00:00:00
  TRACK 02 AUDIO
    TITLE "DISC1Track28_02"
    INDEX 01 00:01:33
  TRACK 03 AUDIO
    TITLE "DISC1Track28_03"
    INDEX 01 00:01:49
  TRACK 04 AUDIO
    TITLE "DISC1Track28_04"
    INDEX 01 00:05:23
  TRACK 05 AUDIO
    TITLE "DISC1Track28_05"
    INDEX 01 00:08:63
  TRACK 06 AUDIO
    TITLE "DISC1Track28_06"
    INDEX 01 00:12:00
  TRACK 07 AUDIO
    TITLE "DISC1Track28_07"
    INDEX 01 00:12:13
  TRACK 08 AUDIO
    TITLE "DISC1Track28_08"
    INDEX 01 00:15:31
  TRACK 09 AUDIO
    TITLE "DISC1Track28_09"
    INDEX 01 00:19:08
  TRACK 10 AUDIO
    TITLE "DISC1Track28_10"
    INDEX 01 00:22:39
  TRACK 11 AUDIO
    TITLE "DISC1Track28_11"
    INDEX 01 00:22:55
  TRACK 12 AUDIO
    TITLE "DISC1Track28_12"
    INDEX 01 00:26:47
  TRACK 13 AUDIO
    TITLE "DISC1Track28_13"
    INDEX 01 00:30:45
  TRACK 14 AUDIO
    TITLE "DISC1Track28_14"
    INDEX 01 00:34:23
  TRACK 15 AUDIO
    TITLE "DISC1Track28_15"
    INDEX 01 00:34:43
  TRACK 16 AUDIO
    TITLE "DISC1Track28_16"
    INDEX 01 00:37:23
  TRACK 17 AUDIO
    TITLE "DISC1Track28_17"
    INDEX 01 00:40:04
  TRACK 18 AUDIO
    TITLE "DISC1Track28_18"
    INDEX 01 00:42:34
  TRACK 19 AUDIO
    TITLE "DISC1Track28_19"
    INDEX 01 00:42:50
  TRACK 20 AUDIO
    TITLE "DISC1Track28_20"
    INDEX 01 00:45:36
  TRACK 21 AUDIO
    TITLE "DISC1Track28_21"
    INDEX 01 00:48:23
  TRACK 22 AUDIO
    TITLE "DISC1Track28_22"
    INDEX 01 00:50:49
  TRACK 23 AUDIO
    TITLE "DISC1Track28_23"
    INDEX 01 00:50:65
  TRACK 24 AUDIO
    TITLE "DISC1Track28_24"
    INDEX 01 00:54:16
  TRACK 25 AUDIO
    TITLE "DISC1Track28_25"
    INDEX 01 00:56:70
  TRACK 26 AUDIO
    TITLE "DISC1Track28_26"
    INDEX 01 00:59:17
  TRACK 27 AUDIO
    TITLE "DISC1Track28_27"
    INDEX 01 00:59:33
  TRACK 28 AUDIO
    TITLE "DISC1Track28_28"
    INDEX 01 01:02:49
  TRACK 29 AUDIO
    TITLE "DISC1Track28_29"
    INDEX 01 01:05:31
  TRACK 30 AUDIO
    TITLE "DISC1Track28_30"
    INDEX 01 01:07:64
  TRACK 31 AUDIO
    TITLE "DISC1Track28_31"
    INDEX 01 01:07:71
  TRACK 32 AUDIO
    TITLE "DISC1Track28_32"
    INDEX 01 01:11:63
  TRACK 33 AUDIO
    TITLE "DISC1Track28_33"
    INDEX 01 01:14:60
  TRACK 34 AUDIO
    TITLE "DISC1Track28_34"
    INDEX 01 01:17:34
  TRACK 35 AUDIO
    TITLE "DISC1Track28_35"
    INDEX 01 01:17:52
  TRACK 36 AUDIO
    TITLE "DISC1Track28_36"
    INDEX 01 01:19:06
  TRACK 37 AUDIO
    TITLE "DISC1Track28_37"
    INDEX 01 01:21:07
  TRACK 38 AUDIO
    TITLE "DISC1Track28_38"
    INDEX 01 01:22:47
  TRACK 39 AUDIO
    TITLE "DISC1Track28_39"
    INDEX 01 01:22:59
  TRACK 40 AUDIO
    TITLE "DISC1Track28_40"
    INDEX 01 01:25:54
  TRACK 41 AUDIO
    TITLE "DISC1Track28_41"
    INDEX 01 01:29:00
  TRACK 42 AUDIO
    TITLE "DISC1Track28_42"
    INDEX 01 01:31:60
  TRACK 43 AUDIO
    TITLE "DISC1Track28_43"
    INDEX 01 01:31:74
  TRACK 44 AUDIO
    TITLE "DISC1Track28_44"
    INDEX 01 01:34:15
  TRACK 45 AUDIO
    TITLE "DISC1Track28_45"
    INDEX 01 01:36:30
  TRACK 46 AUDIO
    TITLE "DISC1Track28_46"
    INDEX 01 01:38:27
